<?xml version="1.0" encoding="UTF-8"?>
<svg width="820px" height="317px" viewBox="0 0 820 317" version="1.1" xmlns="http://www.w3.org/2000/svg" xmlns:xlink="http://www.w3.org/1999/xlink">
    <!-- Generator: Sketch 57.1 (83088) - https://sketch.com -->
    <title>Vector Copy</title>
    <desc>Created with Sketch.</desc>
    <g id="Vector-Copy" stroke="none" stroke-width="1" fill="none" fill-rule="evenodd">
        <rect fill="#021832" x="0" y="0" width="820" height="317"></rect>
        <g id="LOGO" transform="translate(92.000000, 69.000000)">
            <path d="M271.405,179.764 C252.829,179.764 242.387,165.075 242.387,151.539 C242.387,138.005 252.829,123.317 271.405,123.317 C278.675,123.317 285.804,126.268 290.196,130.299 L285.516,135.412 C281.628,131.886 276.659,129.795 271.405,129.795 C259.957,129.795 249.733,138.941 249.733,151.539 C249.733,164.283 260.245,173.284 271.405,173.284 C277.451,173.284 282.204,171.052 286.02,167.452 L290.412,172.42 C285.516,176.884 278.315,179.764 271.405,179.764 Z M618.084,179.764 C608.148,179.764 601.09,174.509 600.227,163.565 L607.139,163.565 C607.714,169.541 610.74,173.715 618.444,173.715 C624.418,173.715 628.741,169.901 628.741,165.077 C628.741,160.83 625.211,158.093 620.245,156.149 L613.26,153.412 C605.124,150.246 601.092,145.492 601.092,138.436 C601.092,129.005 608.94,123.317 617.94,123.317 C627.011,123.317 634.068,128.716 634.86,139.803 L628.379,139.803 C627.443,133.324 623.698,129.364 617.868,129.364 C610.092,129.364 608.004,134.478 608.004,138.221 C608.004,142.325 610.596,144.917 615.996,146.932 L622.909,149.524 C631.619,152.764 635.653,157.878 635.653,164.5 C635.653,173.356 628.595,179.764 618.084,179.764 Z M0.684,178.901 L0.684,124.18 L7.164,124.18 L36.539,166.516 L36.684,166.516 L36.684,124.18 L43.596,124.18 L43.596,178.901 L37.116,178.901 L7.741,136.565 L7.596,136.565 L7.596,178.901 L0.684,178.901 Z M50.149,178.901 L72.397,124.18 L78.444,124.18 L100.692,178.901 L93.131,178.901 L88.164,166.157 L62.676,166.157 L57.707,178.901 L50.149,178.901 Z M114.875,178.901 L94.645,124.18 L101.989,124.18 L117.684,167.883 L117.828,167.883 L133.524,124.18 L140.868,124.18 L120.635,178.901 L114.875,178.901 Z M134.821,178.901 L157.069,124.18 L163.116,124.18 L185.364,178.901 L177.803,178.901 L172.836,166.157 L147.348,166.157 L142.379,178.901 L134.821,178.901 Z M192.203,178.901 L192.203,124.18 L199.116,124.18 L199.116,172.42 L218.34,172.42 L218.34,178.901 L192.203,178.901 Z M297.612,178.901 L297.612,124.18 L304.524,124.18 L304.524,147.653 L333.108,147.653 L333.108,124.18 L340.02,124.18 L340.02,178.901 L333.108,178.901 L333.108,154.131 L304.524,154.131 L304.524,178.901 L297.612,178.901 Z M346.86,178.901 L369.108,124.18 L375.157,124.18 L397.405,178.901 L389.844,178.901 L384.875,166.157 L359.387,166.157 L354.42,178.901 L346.86,178.901 Z M404.245,178.901 L404.245,124.18 L419.364,124.18 C430.954,124.18 437.868,133.109 437.868,142.252 C437.868,151.396 430.954,160.252 419.364,160.252 L411.157,160.252 L411.157,178.901 L404.245,178.901 Z M445.573,178.901 L445.573,124.18 L452.485,124.18 L452.485,172.42 L471.707,172.42 L471.707,178.901 L445.573,178.901 Z M474.803,178.901 L497.051,124.18 L503.1,124.18 L525.348,178.901 L517.787,178.901 L512.821,166.157 L487.332,166.157 L482.364,178.901 L474.803,178.901 Z M531.901,178.901 L531.901,124.18 L538.813,124.18 L538.813,178.901 L531.901,178.901 Z M549.18,178.901 L549.18,124.18 L555.661,124.18 L585.036,166.516 L585.18,166.516 L585.18,124.18 L592.092,124.18 L592.092,178.901 L585.612,178.901 L556.237,136.565 L556.092,136.565 L556.092,178.901 L549.18,178.901 Z M65.051,160.108 L85.787,160.108 L75.42,133.252 L65.051,160.108 Z M149.723,160.108 L170.459,160.108 L160.092,133.252 L149.723,160.108 Z M361.764,160.108 L382.5,160.108 L372.131,133.252 L361.764,160.108 Z M489.707,160.108 L510.444,160.108 L500.077,133.252 L489.707,160.108 Z M411.157,154.203 L417.924,154.203 C426.203,154.203 430.955,150.172 430.955,142.252 C430.955,134.333 426.203,130.229 417.924,130.229 L411.157,130.229 L411.157,154.203 Z M110.844,57.364 C92.268,57.364 81.828,42.675 81.828,29.139 C81.828,15.603 92.268,0.916 110.844,0.916 C129.42,0.916 139.86,15.603 139.86,29.139 C139.86,42.675 129.42,57.364 110.844,57.364 Z M0.971,56.5 L0.971,1.78 L29.268,1.78 L29.268,8.26 L7.883,8.26 L7.883,25.612 L29.268,25.612 L29.268,32.092 L7.883,32.092 L7.883,56.5 L0.971,56.5 Z M38.34,56.5 L38.34,1.78 L54.108,1.78 C64.62,1.78 72.467,7.828 72.467,18.34 C72.467,28.132 64.764,34.18 55.836,34.684 L77.149,56.5 L67.428,56.5 L45.252,33.172 L45.252,56.5 L38.34,56.5 Z M148.645,56.5 L148.645,1.78 L155.123,1.78 L184.5,44.116 L184.645,44.116 L184.645,1.78 L191.555,1.78 L191.555,56.5 L185.077,56.5 L155.7,14.164 L155.555,14.164 L155.555,56.5 L148.645,56.5 Z M211.932,56.5 L211.932,8.26 L198.252,8.26 L198.252,1.78 L232.524,1.78 L232.524,8.26 L218.844,8.26 L218.844,56.5 L211.932,56.5 Z M258.227,56.5 L258.227,1.78 L265.139,1.78 L265.139,50.02 L284.364,50.02 L284.364,56.5 L258.227,56.5 Z M291.276,56.5 L291.276,1.78 L298.188,1.78 L298.188,56.5 L291.276,56.5 Z M308.555,56.5 L308.555,1.78 L315.036,1.78 L344.412,44.116 L344.555,44.116 L344.555,1.78 L351.467,1.78 L351.467,56.5 L344.989,56.5 L315.612,14.164 L315.467,14.164 L315.467,56.5 L308.555,56.5 Z M362.123,56.5 L362.123,1.78 L390.42,1.78 L390.42,8.26 L369.036,8.26 L369.036,25.612 L390.42,25.612 L390.42,32.092 L369.036,32.092 L369.036,50.02 L390.42,50.02 L390.42,56.5 L362.123,56.5 Z M110.844,50.883 C122.004,50.883 132.516,42.099 132.516,29.139 C132.516,16.179 122.004,7.397 110.844,7.397 C99.684,7.397 89.172,16.179 89.172,29.139 C89.172,42.099 99.684,50.883 110.844,50.883 Z M51.299,28.996 C61.883,28.996 65.555,24.388 65.555,18.412 C65.555,12.005 61.163,7.828 53.963,7.828 L45.252,7.828 L45.252,28.924 C46.188,28.996 47.195,28.996 51.299,28.996 Z" id="FRONT-LINE--NAVAL-CHAPLAINS" fill="#FFFFFF" fill-rule="nonzero"></path>
            <path d="M0,91 L393,91" id="Shape" stroke="#FFFFFF" stroke-width="4" stroke-linejoin="round"></path>
        </g>
    </g>
</svg>